<svg xmlns="http://www.w3.org/2000/svg" xmlns:xlink="http://www.w3.org/1999/xlink" width="262" height="250" viewBox="0 0 262 250">
    <defs>
        <path id="a" d="M0 .237h259.753V177H0z"/>
    </defs>
    <g fill="none" fill-rule="evenodd">
        <g transform="translate(1)">
            <circle cx="130" cy="125" r="125" fill="#F1F1F1"/>
            <path fill="#FFF" d="M208.708 209.696l.275.067c.328-.013.602-.358.698-.508l.3-.3 49.31-32.647c.287-.195.462-.52.462-.869V34.035c0-.387-.208-.736-.54-.91a1.07 1.07 0 0 0-1.085.05l-49.66 32.88-49.005-32.893a.93.93 0 0 0-.432-.142l-.195-.008c-.108.02-.22.062-.35.133l-.224.104-53.297 32.822L55.521 33.13a.974.974 0 0 0-.395-.113l-.15-.012a1.113 1.113 0 0 0-.382.141l-.22.1L.499 66.421a1.027 1.027 0 0 0-.499.886V208.71c0 .375.204.72.528.907.34.196.731.179 1.051-.017l53.464-32.926 49.444 32.943a.86.86 0 0 0 .395.112l.15.013c.112-.017.237-.058.382-.142l.229-.103 53.297-32.819.557.37 48.384 32.523c.133.096.283.15.44.17l.387-.045z"/>
            <g transform="translate(0 33)">
                <mask id="b" fill="#fff">
                    <use xlink:href="#a"/>
                </mask>
                <path fill="#000" d="M207.802 174.25l-47.794-32.131V121.88c0-.57-.466-1.04-1.04-1.04-.573 0-1.038.47-1.038 1.04v20.217l-51.95 31.994V92.77c0-.57-.466-1.04-1.04-1.04-.573 0-1.039.47-1.039 1.04v81.236l-47.794-31.882V96.928c0-.57-.466-1.04-1.04-1.04-.573 0-1.038.47-1.038 1.04v45.17L2.078 174.092V35.122l51.95-31.987v56.362a1.04 1.04 0 0 0 2.079 0V3.214L103.9 35.101v24.396a1.04 1.04 0 0 0 2.078 0V35.122l51.95-31.987v81.316a1.04 1.04 0 0 0 2.079 0V3.223l47.877 32.186c.35.233.798.233 1.156 0L257.675 3.21v138.913l-47.795 31.64V130.2c0-.57-.465-1.04-1.039-1.04-.573 0-1.039.47-1.039 1.04v44.052zm.906 2.683l.275.067c.328-.013.602-.358.698-.508l.3-.3 49.31-32.647c.287-.195.462-.52.462-.87V1.273c0-.387-.208-.736-.54-.91a1.07 1.07 0 0 0-1.085.05l-49.66 32.88L159.462.399a.93.93 0 0 0-.432-.142l-.195-.008c-.108.02-.22.062-.35.133l-.224.104-53.297 32.822L55.521.365a.974.974 0 0 0-.395-.112l-.15-.012a1.113 1.113 0 0 0-.382.141l-.22.1L.499 33.658a1.027 1.027 0 0 0-.499.886v141.403c0 .375.204.72.528.907.34.195.731.179 1.051-.017l53.464-32.926 49.444 32.943a.86.86 0 0 0 .395.112l.15.013c.112-.017.237-.058.382-.142l.229-.104 53.297-32.818.557.37 48.384 32.523c.133.096.283.15.44.17l.387-.045z" mask="url(#b)"/>
            </g>
            <path fill="#000" d="M126.79 121.652c14 11.513 30.642 17.348 49.464 17.348 23.195 0 40.98-8.856 41.159-8.947.268-.136.46-.35.54-.615a.951.951 0 0 0-.09-.785 1.107 1.107 0 0 0-.674-.5 1.143 1.143 0 0 0-.83.082c-.501.252-48.897 24.1-88.086-8.128-40.056-32.93-80.165-5.364-81.854-4.17a1 1 0 0 0-.41.678.97.97 0 0 0 .227.76c.188.224.451.364.75.397.296.033.581-.041.818-.21.393-.286 39.698-28.204 78.986 4.09"/>
            <g fill="#000" fill-rule="nonzero" stroke="#000" stroke-width=".5">
                <path d="M233.537 98.692a4.493 4.493 0 0 0-4.488 4.487 4.493 4.493 0 0 0 4.488 4.488 4.493 4.493 0 0 0 4.487-4.488 4.493 4.493 0 0 0-4.487-4.487zm0 7.693a3.209 3.209 0 0 1-3.206-3.206 3.209 3.209 0 0 1 3.206-3.205 3.209 3.209 0 0 1 3.205 3.205 3.209 3.209 0 0 1-3.205 3.206z"/>
                <path d="M242.115 94.6a12.213 12.213 0 0 0-8.692-3.6c-3.284 0-6.37 1.279-8.692 3.6-4.297 4.297-4.831 12.38-1.157 17.278l9.85 14.223 9.833-14.204c3.69-4.917 3.155-13-1.142-17.296zm.102 16.548l-8.794 12.7-8.808-12.72c-3.333-4.443-2.855-11.743 1.023-15.62a10.938 10.938 0 0 1 7.785-3.226 10.94 10.94 0 0 1 7.786 3.225c3.878 3.878 4.356 11.178 1.008 15.641z"/>
            </g>
            <circle cx="27" cy="129" r="10" stroke="#000" stroke-width="1.7"/>
            <g fill="#0DAD68" opacity=".209">
                <path d="M60.656 45l43.33 29.484.67 135.516L61.6 180.993zM165 45l43.331 29.484L209 210l-43.054-29.007z"/>
            </g>
        </g>
        <path stroke="#0DAD68" stroke-linecap="round" stroke-linejoin="round" stroke-width="2" d="M1 220.71l53.483-33.273a1 1 0 0 1 1.081.016l49.56 32.905a1 1 0 0 0 1.076.019l54.3-33.28 49.608 33.247a1 1 0 0 0 1.1.008l49.084-31.807M1 55.613L54.483 22.34a1 1 0 0 1 1.081.016l49.56 32.904a1 1 0 0 0 1.076.02L160.5 22l49.608 33.246a1 1 0 0 0 1.1.008l49.084-31.807" opacity=".2"/>
    </g>
</svg>
